<svg width="133" height="73" viewBox="0 0 133 73" fill="none" xmlns="http://www.w3.org/2000/svg">
<path d="M126.052 27.3102L98.6192 22.7373L88.2015 7.11081C87.3409 5.83354 85.62 5.49272 84.3591 6.34242C83.0872 7.19211 82.741 8.91021 83.5907 10.1849L91.8021 22.5022H30.1142L36.2644 13.2751C37.1356 11.9653 38.5319 11.0886 40.0905 10.8668L75.2023 5.84964C76.7175 5.63326 77.7729 4.2287 77.5565 2.71349C77.3347 1.19827 75.906 0.15375 74.423 0.362082L39.3112 5.37895C36.1885 5.82263 33.4015 7.5815 31.6535 10.2036L23.2254 22.8461L6.29933 27.0775C2.59221 28.003 0 31.3202 0 35.1411V49.063C0 52.3291 1.27181 55.4003 3.58269 57.7112C5.8611 59.9867 9.01077 61.2938 12.2308 61.2938H19.676C20.9634 67.6098 26.5577 72.3773 33.2501 72.3773C39.9424 72.3773 45.5367 67.6098 46.8241 61.2938H83.4052C84.6926 67.6098 90.2869 72.3773 96.9793 72.3773C103.672 72.3773 109.266 67.6098 110.553 61.2938H122.972C125.088 61.2938 126.987 60.1223 127.935 58.2307L132.416 49.2633C132.513 49.0685 132.589 48.8627 132.637 48.6518L132.93 47.4125C132.978 47.2067 133 46.9958 133 46.7846V35.509C133 31.4259 130.078 27.9786 126.052 27.3102ZM33.2501 66.8352C28.6662 66.8352 24.9375 63.1065 24.9375 58.5227C24.9375 53.9388 28.6662 50.2101 33.2501 50.2101C37.8339 50.2101 41.5626 53.9388 41.5626 58.5227C41.5626 63.1065 37.8339 66.8352 33.2501 66.8352ZM96.9793 66.8352C92.3954 66.8352 88.6668 63.1065 88.6668 58.5227C88.6668 53.9388 92.3954 50.2101 96.9793 50.2101C101.563 50.2101 105.292 53.9388 105.292 58.5227C105.292 63.1065 101.563 66.8352 96.9793 66.8352ZM127.459 46.4625L122.972 55.7517H110.554C109.266 49.4358 103.672 44.6683 96.9795 44.6683C90.2872 44.6683 84.6929 49.4358 83.4054 55.7517H46.8241C45.5367 49.4358 39.9424 44.6683 33.2501 44.6683C26.5577 44.6683 20.9634 49.4358 19.676 55.7517H12.2306C10.4717 55.7517 8.74529 55.0374 7.50075 53.7926C6.23984 52.5288 5.54159 50.8487 5.54159 49.0628V35.1409C5.54159 33.8664 6.40739 32.7624 7.64128 32.4512L25.2784 28.0433H96.752L125.142 32.7762C126.485 32.998 127.459 34.148 127.459 35.5092V46.4625Z" fill="white"/>
</svg>
