<svg width="133" height="68" viewBox="0 0 133 68" fill="none" xmlns="http://www.w3.org/2000/svg">
<path d="M126.051 22.3135L97.4335 17.5663C95.9507 17.2999 94.5001 18.3284 94.2458 19.8335C93.9914 21.3334 95.0141 22.7551 96.524 23.0055L125.142 27.7527C126.484 27.9735 127.458 29.1179 127.458 30.4723V41.3719L122.977 50.6157H110.553C109.266 44.3307 103.671 39.5865 96.9791 39.5865C90.2867 39.5865 84.6925 44.3307 83.4051 50.6157H46.8237C45.5367 44.3307 39.9422 39.5865 33.2499 39.5865C26.5628 39.5865 20.97 44.3231 19.677 50.6012L12.2303 50.6157C10.4715 50.6157 8.74516 49.9048 7.50057 48.6659C6.23968 47.4086 5.54143 45.7366 5.54143 43.9594V30.106C5.54143 28.8379 6.40723 27.7393 7.64117 27.4296L25.6083 22.9599C26.2791 22.7957 26.8585 22.3861 27.2427 21.8154L35.8584 8.95549C36.8865 7.41793 38.6129 6.49994 40.4692 6.49994H81.4472C82.9789 6.49994 84.2183 5.26665 84.2183 3.74271C84.2183 2.21877 82.9789 0.985474 81.4472 0.985474H40.4695C36.757 0.985474 33.3094 2.8219 31.2477 5.89681L23.2275 17.871L6.29944 22.0827C2.59219 23.0027 0 26.304 0 30.106V43.9596C0 47.2095 1.27175 50.2655 3.58273 52.5652C5.86111 54.8296 9.01072 56.1304 12.2362 56.1304L19.6744 56.1159C20.9561 62.408 26.5525 67.1591 33.2501 67.1591C39.9425 67.1591 45.5367 62.4149 46.8241 56.1299H83.4051C84.6925 62.4149 90.2869 67.1591 96.9791 67.1591C103.671 67.1591 109.266 62.4149 110.553 56.1299H122.977C125.088 56.1299 126.987 54.9641 127.934 53.0818L132.415 44.1583C132.513 43.9646 132.589 43.7598 132.637 43.55L132.93 42.3167C132.978 42.1121 133 41.9022 133 41.692V30.4719C133 26.4089 130.077 22.9785 126.051 22.3135ZM33.2499 61.6446C28.666 61.6446 24.9374 57.9343 24.9374 53.3729C24.9374 48.8115 28.6662 45.1012 33.2499 45.1012C37.8336 45.1012 41.5624 48.8115 41.5624 53.3729C41.5624 57.9343 37.8338 61.6446 33.2499 61.6446ZM96.9789 61.6446C92.3951 61.6446 88.6664 57.9343 88.6664 53.3729C88.6664 48.8115 92.3951 45.1012 96.9789 45.1012C101.563 45.1012 105.292 48.8115 105.292 53.3729C105.292 57.9343 101.563 61.6446 96.9789 61.6446Z" fill="white"/>
<path fill-rule="evenodd" clip-rule="evenodd" d="M78.703 21.5278C78.5934 21.6892 78.4841 21.8503 78.3746 22.0114C77.6709 23.0479 76.4031 23.4901 75.2139 23.1141C74.0306 22.7399 73.2469 21.6433 73.2813 20.3938C73.2954 19.8728 73.451 19.3899 73.742 18.9553C75.5955 16.1864 77.444 13.4138 79.3082 10.652C80.3887 9.05131 82.7842 9.02925 83.8717 10.6278C85.7658 13.4123 87.6341 16.2143 89.497 19.0197C90.3135 20.2498 89.9338 21.9454 88.6936 22.7782C87.4679 23.6011 85.7763 23.308 84.9037 22.1197C84.7716 21.9396 84.6503 21.7512 84.4587 21.57C84.4587 21.6736 84.4587 21.7774 84.4587 21.881C84.4587 27.2614 84.4593 32.6417 84.4582 38.0221C84.4578 39.4872 83.4883 40.6349 82.0529 40.8771C80.3511 41.1645 78.7577 39.8307 78.7569 38.1086C78.7542 32.685 78.756 27.2616 78.756 21.8379C78.756 21.7389 78.756 21.6401 78.756 21.5412C78.7382 21.5369 78.7206 21.5324 78.703 21.5278Z" fill="white"/>
</svg>
