<svg width="68" height="91" viewBox="0 0 68 91" fill="none" xmlns="http://www.w3.org/2000/svg">
<path d="M62.6486 64.4894C63.531 61.6187 63.9862 58.6887 63.9862 55.746C63.9862 52.4929 63.4643 49.2767 62.435 46.1874L58.1932 33.4622C56.7634 29.1763 53.3339 25.9675 49.015 24.8795C47.4562 24.4878 45.474 24.0741 43.2847 23.7203V19.1528H45.1667C47.2435 19.1528 48.9305 17.4639 48.9305 15.389V7.86118C48.9305 3.70938 45.5527 0.333344 41.4028 0.333344H26.3473C22.1975 0.333344 18.8195 3.70938 18.8195 7.86118V15.389C18.8195 17.4639 20.5067 19.1528 22.5833 19.1528H24.4653V23.7203C22.276 24.0741 20.2936 24.4878 18.735 24.8795C14.4161 25.9675 10.9866 29.1763 9.55681 33.4622L5.31502 46.1874C4.28589 49.2767 3.76383 52.4931 3.76383 55.746C3.76383 58.6889 4.2192 61.6187 5.10154 64.4894C2.18811 65.1463 0 67.7448 0 70.853C0 73.856 0.573405 81.176 1.90406 84.4898L2.73117 86.5592C3.72713 89.055 6.10897 90.6667 8.79586 90.6667H59.2297C61.7181 90.6667 63.9567 89.2847 65.0741 87.0553C66.9635 83.2694 67.75 75.3502 67.75 71.952V70.853C67.75 67.7448 65.5621 65.1464 62.6486 64.4894ZM22.5833 15.389V7.86118C22.5833 5.78634 24.2706 4.09735 26.3472 4.09735H41.4027C43.4794 4.09735 45.1665 5.78634 45.1665 7.86118V15.389H22.5833ZM39.5208 19.1528V23.2367C37.7147 23.0539 35.8442 22.9167 33.875 22.9167C31.9058 22.9167 30.0353 23.0538 28.2292 23.2367V19.1528H39.5208ZM8.88778 47.3783L13.1296 34.6531C14.1478 31.5894 16.5883 29.3014 19.6539 28.5295C23.0061 27.686 28.1999 26.6807 33.875 26.6807C39.5501 26.6807 44.7439 27.686 48.0961 28.5295C51.1617 29.3014 53.6022 31.5896 54.6204 34.6531L58.8622 47.3783C59.7664 50.0835 60.2222 52.8992 60.2222 55.746C60.2222 58.8558 59.623 61.9543 58.4889 64.9758C57.1738 65.5842 56.0508 66.5734 55.3703 67.9309L53.6389 71.3916C53.0924 71.2071 52.3789 70.9853 51.596 70.7528L54.0654 65.8928C55.6312 62.7574 56.4583 59.249 56.4583 55.7461C56.4583 53.3036 56.0651 50.8888 55.2932 48.5675L51.0514 35.846C50.4485 34.0338 48.9672 32.6298 47.1773 32.1795C44.0273 31.3874 39.1606 30.4447 33.875 30.4447C28.593 30.4447 23.7227 31.3875 20.569 32.1795C18.7826 32.6298 17.3013 34.0321 16.6984 35.8388L12.4566 48.5676C11.6848 50.8888 11.2915 53.3038 11.2915 55.7463C11.2915 59.2492 12.1186 62.7595 13.6954 65.9132L16.1538 70.7528C15.3708 70.9853 14.6573 71.2073 14.1109 71.3918L12.3795 67.9293C11.699 66.5727 10.5759 65.584 9.26075 64.9758C8.12665 61.9539 7.52766 58.8558 7.52766 55.7461C7.52784 52.8992 7.98356 50.0835 8.88778 47.3783ZM50.7059 64.2001L47.8763 69.7706C44.1125 68.891 39.2248 68.0833 33.875 68.0833C28.5252 68.0833 23.6375 68.891 19.8739 69.7706L17.055 64.2204C15.7464 61.5977 15.0555 58.6682 15.0555 55.7461C15.0555 53.7098 15.3826 51.6956 16.0296 49.7584L20.2714 37.0277C20.4661 36.4377 20.9441 35.9654 21.488 35.8294C24.4359 35.0905 28.9753 34.2083 33.875 34.2083C38.7784 34.2083 43.3141 35.0905 46.2584 35.8294C46.8024 35.9672 47.2839 36.4377 47.4788 37.0332L51.7206 49.7584C52.3676 51.6954 52.6947 53.7098 52.6947 55.7461C52.6945 58.668 52.0034 61.5957 50.7059 64.2001ZM63.9862 71.952C63.9862 75.6496 63.1187 82.5453 61.7072 85.37C61.2329 86.3146 60.2846 86.9028 59.2297 86.9028H8.79586C7.65646 86.9028 6.6455 86.2192 6.22294 85.1623L5.39583 83.091C4.39969 80.6044 3.76383 74.1812 3.76383 70.8528C3.76383 69.3256 5.00627 68.0832 6.53523 68.0832C7.59012 68.0832 8.53844 68.6712 9.01269 69.6141L11.4902 74.5708C11.9275 75.4455 12.9715 75.8425 13.872 75.4767C13.9639 75.44 23.0722 71.847 33.875 71.847C44.6448 71.847 53.7861 75.44 53.878 75.4767C54.7748 75.8314 55.8225 75.4473 56.2598 74.5708L58.7373 69.616C59.2116 68.6714 60.1599 68.0832 61.2148 68.0832C62.7439 68.0832 63.9862 69.3256 63.9862 70.8528V71.952Z" fill="white"/>
</svg>
