<svg width="70" height="83" viewBox="0 0 70 83" fill="none" xmlns="http://www.w3.org/2000/svg">
<path d="M35.0037 83L10.2532 58.6932C3.64085 52.1974 0 43.5629 0 34.3792C0 25.1955 3.64085 16.561 10.2532 10.0652C16.8656 3.57665 25.6478 0 35.0037 0C44.3522 0 53.1417 3.57665 59.7468 10.0724C66.3591 16.5682 70 25.2027 70 34.3864C70 43.5701 66.3591 52.2047 59.7468 58.6932L35.0037 83ZM35.0037 8.59842C27.9941 8.59842 21.4038 11.2791 16.4464 16.1491C11.4889 21.0264 8.76011 27.4933 8.76011 34.3792C8.76011 41.2652 11.4889 47.732 16.4464 52.6093L35.0037 70.8394L53.561 52.6093C58.5184 47.7393 61.2472 41.2724 61.2472 34.3792C61.2472 27.4933 58.5111 21.0264 53.561 16.1491C48.5962 11.2791 42.0132 8.59842 35.0037 8.59842Z" fill="#37A802"/>
<path d="M34.6579 54.5459C29.2665 54.5314 24.1987 52.4721 20.3887 48.7293C16.586 44.9937 14.4824 40.008 14.4824 34.7189C14.4824 29.4298 16.586 24.4442 20.3887 20.7086C28.0014 13.2084 41.2923 13.2157 48.9197 20.7086C52.7298 24.4442 54.826 29.4298 54.826 34.7189C54.826 40.008 52.7298 44.9937 48.9197 48.7293C45.1171 52.4721 40.0493 54.5459 34.6579 54.5459ZM34.6579 23.4976C31.6055 23.5049 28.7369 24.6682 26.5892 26.7853C24.4267 28.9024 23.2425 31.7203 23.2425 34.7189C23.2425 37.7175 24.4341 40.5355 26.5892 42.6454C28.7443 44.7625 31.6128 45.933 34.6579 45.9402C37.7103 45.9402 40.5715 44.7697 42.734 42.6454C44.8891 40.5283 46.0733 37.7175 46.0733 34.7189C46.0733 31.7203 44.8891 28.9024 42.734 26.7853C40.5715 24.6609 37.703 23.4976 34.6579 23.4976Z" fill="#37A802"/>
</svg>
