<svg width="49" height="71" viewBox="0 0 49 71" fill="none" xmlns="http://www.w3.org/2000/svg">
<path d="M44.6211 71H4.37894C1.95765 71 0 69.1006 0 66.7513V4.24872C0 1.89943 1.95765 0 4.37894 0H44.6211C47.0424 0 49 1.89943 49 4.24872V66.7513C49 69.1006 47.0424 71 44.6211 71ZM8.76524 62.5026H40.2421V8.50458H8.76524V62.5026Z" fill="#37A802"/>
<path d="M28.3561 54.0979C28.3561 56.9685 25.9569 59.2892 23.0057 59.2892C20.0545 59.2892 17.6479 56.9613 17.6479 54.0979C17.6479 51.2273 20.0472 48.9066 22.9984 48.9066C25.9495 48.9066 28.3561 51.2273 28.3561 54.0979Z" fill="#37A802"/>
</svg>
