<svg width="272" height="250" viewBox="0 0 272 250" fill="none" xmlns="http://www.w3.org/2000/svg">
<path d="M0 0V139.058H43.5209V250H73.4401V228.539H201.297V250H231.174V139.058H272V0H0ZM258.112 7.67465L193.754 129.427H154.084L218.453 7.67465H258.112ZM190.804 7.38764L126.404 129.13H86.7446L151.145 7.38764H190.804ZM10.8537 8.92895L57.3983 8.75888L10.6097 96.624L10.8537 8.92895ZM61.918 130.416H22.2591L86.5749 8.67384H126.276L61.918 130.416ZM201.297 198.478H73.4401V139.058H201.297V198.478ZM266.525 128.343L219.938 128.301L266.78 40.4779L266.525 128.343Z" fill="#37A802"/>
</svg>
